<svg xmlns="http://www.w3.org/2000/svg" viewBox="0 0 416 442" enable-background="new 0 0 416 442"><g fill="#b2b2b2"><path d="m178 295.4c0 0-2-1.1-4.3.6-2.3 1.7-3.2 4.7-4.6 6.4-1.4 1.7-3.7 2.1-2.1 4.1 1.6 2.1 3.3 3.7 7.5 5.7 4.2 2 4.5 1.9 7.8 1.2 0 0 1-.3 1.8 1.1.8 1.4.7 2.9 4.6 4.8 3.9 1.9 8.8 5.4 15.9 5.2 7.1-.2 5.9-4.5 4.4-5.3-1.5-.7-7-3.1-8.5-4.8-1.5-1.8-2.5-3.2-2.5-3.2s.1-.6-.4-.9c-.5-.2-.5 0-.9-.2-.3-.2-.8-1.5-.7-1.6.1-.1-.2-.7-.6-.8-.3-.2-.6.2-.6-.1 0-.3-.6-1.5-.6-1.5s.6-.5.4-1.1c-.2-.5-.5-1.1-1-1.2-.5-.1-.7-.2-.9-.5-.2-.3.2-.6 0-.9-.2-.4-1.2-2.4-1.5-2.9-.4-.5-.9-.5-1.5.2-.5.7-.7 1.6-.7 1.6s-.7.2-3.6-.1c-2.9-.3-4-.5-5.5-1.6-1.7-1.3-1.3-3.9-1.9-4.2"/><path d="m184.6 388.4c0 0-2.5-.4-4.1 2.4-1.7 2.7-1.6 6.4-2.4 8.8-.8 2.5-3 3.8-.6 5.3 2.4 1.6 4.7 2.6 9.7 3.2 5 .5 5.3.2 8.4-1.9 0 0 .9-.7 2.2.4 1.3 1.1 1.7 2.8 6.4 3.3 4.7.5 10.9 2.3 18.1-.9 7.2-3.1 4.3-7.3 2.5-7.5-1.8-.2-8.3-.5-10.5-1.8-2.2-1.3-3.7-2.4-3.7-2.4s-.1-.7-.7-.8c-.6-.1-.6.2-1 .1-.4-.1-1.3-1.3-1.3-1.5 0-.2-.5-.6-.9-.7-.4 0-.6.4-.7.1-.1-.3-1.1-1.5-1.1-1.5s.4-.8 0-1.3c-.4-.5-.9-1-1.5-.9-.6.1-.8.1-1.1-.1-.3-.2 0-.7-.3-1-.3-.3-2.1-2.1-2.6-2.6-.6-.4-1.1-.1-1.4.9-.3 1-.1 2.1-.1 2.1s-.7.6-3.7 1.4c-3 .8-4.2 1.1-6.2.5-2.2-.5-2.7-3.5-3.4-3.6"/></g><g fill="#e2bd9c"><path d="m217.1 108.6c0 0 91.2 103.5 90.9 103.5-.3 0 9-3.3 9 0 0 3.3 1.3 7 1.3 7s5.7 0 6-3.7c.3-3.7 1.7-8.7-.2-10 0 0-6.7-.5-8.7-1.2-2-.7-57.4-80.4-57.9-81.7-.5-1.2-34.5-51.9-34.5-53.1 0-1.2-26.5 7.7-26.5 7.7l20.6 31.5"/><path d="m344.7 101.7c0 0-5.4-5.2-3.6-6.7s-121.3 8.7-121.3 8.7l-2-19.9c0 0 153.7 4.5 159.3 4.8 0 0 3.8-.2 2.6 2.1-1.2 2.2-16.7 2.2-16.7 2.2s-.9 8.3-2.7 10c-2.1 2-12.9.7-12.9.7l-2.7-1.9"/></g><path fill="none" stroke="#fff" stroke-width="1.998" stroke-miterlimit="10" d="m213.1 37.6c0-.2 0-.1 0 0z"/><path fill="#704d3a" d="m265.6 34.7c1.8-.1 10.4 1.4 11.5.9.5-1.7.3-11.9-7.4-20.8-3.2-3.3-15.4-11.9-27-10.4-11.7 1.4-17.2 10.6-19.1 13.3-1.2-.2-4.2-.2-4.2-.2-10.9-.2-13.7 7.3-13.7 7.3-5.7 12.1 1.8 20 1.8 20s3.5 6.6 4.4 8c-1.1-2-1.4-9.3-1.4-9.3s0 0 .1.5c0 .3 3.2 4.3 4.2 6 .8-2.5-2.6-4.6-2.6-4.6l2 1.7 3.5.9c0 0 .4 2.6-2.4-9.4-2.8-12 4.4-14.2 4.4-14.2h2.2c-3.4 6.5-.6 17.6.6 24 .2.8.4 1.5.4 2.1.3 2.3.3 2.3.3 2.3s16.6-11.2 21.7-15.3c5.3-4 16.9-2.7 20.7-2.8"/><g fill="#084975"><path d="m243.5 208.3c-1.3-1.3-58.4-41.3-58.4-41.3l-10.6 3.3 7.9 40.8c1.8-1.8 26.5 11.7 28.6 13.5 2.2 1.8-25.5 50.4-26.6 52.6 0 .2 1.2 10.6 2.5 23l50.5-70.6c0 0 9.6-13 9.9-14 1.3-4.2-3.8-7.3-3.8-7.3"/><path d="m186.6 300.5l.2-.3c-1.3-12.4-2.5-22.8-2.5-23-1.1 2.2 2.3 23.3 2.3 23.3"/></g><path fill="#e2bd9c" d="m266.5 33.1c-3.8.2-16.4-2.2-20.5.7-5.4 3.7-22.5 18.3-22.5 18.3-.1 3.4-7.8 17.2-7.8 17.2l-7.1 8.2c0 0 2.6 3.2 5.9 3.3 3.3 0 10.7 3.1 14.8 6 4.1 2.9 7.4-1.2 7.6-3.6.2-2.3 6.7-12.9 6.7-12.9 9.1 5.7 12.2 7.8 15.2 7.3 2.8-.5 3.9-5.4 3.9-5.4s.3-.4.9-.9c-2.5-1.8-6-5.8-5.9-6.7.1-.9 5.4 1.9 8.2 3.4 1.9-.4 2.1-1.8 2.1-1.8.7-3.1 3.2-2.6 3.2-2.6s2.2.7 3.1-.5c.9-1.1.5-2.8.5-2.8l-1.3-9.2c-.1-1.1.1-2.8 1.5-5.2.7-1.3 1.4-3.7 2-7.4.2-1 .1-1.9.1-2.8-1 .4-8.8-2.7-10.6-2.6"/><g fill="#fff"><path d="m327.9 262.8c-8.4 0-16.5 1.2-24.1 3.5l-7.3 2.5c-32.1 12.7-54.9 44.3-54.9 81.3 0 48.2 38.6 87.3 86.3 87.3 47.7 0 86.3-39.1 86.3-87.3 0-48.2-38.6-87.3-86.3-87.3m77.1 87.6l-68.7-3.5 65-20c2.4 7.4 3.7 15.3 3.7 23.5m-4.3-25.4l-65.2 20.1 53.5-41.9c4.9 6.5 8.9 13.9 11.7 21.8m-13-23.4l-53.1 41.6 36.4-57c6.3 4.3 11.9 9.5 16.7 15.4m-18.5-16.4l-36.5 57.2 14.8-66.7c7.8 2 15.1 5.2 21.7 9.5m-41.1-12.1c6 0 11.9.7 17.5 2l-14.8 66.7-9-68.5c2.1-.1 4.2-.2 6.3-.2m-31.6 6.9c.8-.4 1.6-.7 2.4-1 0 0-.1 0-.1 0h.1c.1 0 .1-.1.2-.1l6.4-2.3c.1 0 .3-.1.4-.1l.2-.1c0 0-.1 0-.2.1 4.5-1.4 9.1-2.3 13.9-2.8l9 68.1-.5-.7-14-26.8-12.6-24.3-5.2-10c-.7.3-1.3.6-2 .9l8.9 16.8 12.7 24.5v-.2l4.4 8.4.7 1.3 5.2 10.2 3 2.7-3-2.7.8 1.7-.8-1.7-15.9-14.2-35.8-33c5.8-5.6 12.5-10.3 19.8-13.9l2-.8m-23.2 16.2l39.8 36.7 12.8 11.7-12.8-11.7c1.5 2.2 10.5 8.4 13.3 11.9l-67.8-27.7c3.8-7.7 8.8-14.8 14.7-20.9m-15.5 22.8l65.3 26.7c.2.2.4.5.6.7l-72.2-2.9c.8-8.7 3-16.9 6.3-24.5m-6.6 31.5c0-1.7.1-3.4.2-5.1l73.1 2.9-71 20.6c-1.5-5.8-2.3-12-2.3-18.4m15.3 46.4c-5.7-7.7-10-16.4-12.6-25.9l72-20.9-59.4 46.8m1.2 1.5l58.8-46.3-40.7 63c-6.9-4.5-13-10.2-18.1-16.7m19.8 17.9l40.9-63.4-16.2 73.4c-8.9-1.9-17.3-5.4-24.7-10m40.6 11.6c-4.8 0-9.4-.5-14-1.3l16.2-73.3 10 73.6c-3.9.7-8 1-12.2 1m14.2-1.3l-10-73.5 34.1 64.5c-7.3 4.3-15.4 7.4-24.1 9m25.9-10l-34-64.4 52.7 48.2c-5.4 6.4-11.7 11.9-18.7 16.2m19.9-17.7l-52.6-48.1 64.5 27.2c-2.9 7.6-6.9 14.7-11.9 20.9m12.6-22.8l-64.5-27.2 68.8 3.5c-.2 8.3-1.7 16.3-4.3 23.7"/><path d="m323 336.3l-3.8-5c-.5-1.4-.8-3-1.2-4.6l-13.5-57.9-10.4-44.4c-.5-2-1-3.8-1.6-5.4h22.4c1.8 0 3.3-1.5 3.3-3.3 0-1.8-1.5-3.3-3.3-3.3h-26.6c0 0-.1 0-.1 0-.1 0-.2 0-.3 0-1.6.2-2.9 1.6-2.9 3.3 0 1.2.6 2.2 1.5 2.8.1 2.2.5 4.7 1.1 7.4l.8 3.6h-132l-14.8-21.2c10.5-1.5 30-.4 32.7-.3 3.5.2 16.5 1.5 14-3-2.5-4.5-9.3-6.7-12-6.3-2.7.3-53.6-1.3-53.6-1.3s-12-1.5-10.5 2.5c1.5 4 11.2 12.5 11.8 12.5.7 0 7.2 2.3 11.3-2l15.4 22.1-22.4 43.8c-11.5-5.7-24.4-8.9-38.1-8.9-47.7 0-86.3 39.1-86.3 87.3 0 48.2 38.6 87.3 86.3 87.3 36.7 0 68-23.1 80.5-55.8 4.4 3 9.8 4.8 15.6 4.8 14.7 0 26.6-11.3 26.6-25.3 0-5-1.5-9.6-4.2-13.6 1.4-1.2 85.7-90.8 86.6-91.9 0 0 1.1 4.8 2.7 12 0 0 0 0 0 0 .1.3.2.7.2 1-.1 0-.2.1-.3.1.1 0 .2-.1.3-.1 1.2 5.2 5.3 22.9 6.7 29 .1.5.2 1 .4 1.6 3.4 14.5 6.3 27.3 6.7 28.1 0 .1 0 .3.1.4l15.9 14.2-5-10.2m-210 8.9l-10.2.4 48.2-38.6c5.3 6.7 9.6 14.4 12.4 22.7l-50.4 15.5m51-13.6c1.2 3.8 2.1 7.7 2.8 11.7l-46.1 1.6 43.3-13.3m-58.5 15.9l-5.5 1.7c-.2-.3-.4-.7-.6-1l.7-.5 5.4-.2m-6.1-1.8h-.4l11.1-21.7 21.8-34.2c6.7 4.3 12.7 9.6 17.8 15.7l-50.3 40.2m30.8-57l-10.6 16.7 9-17.6c.5.2 1 .6 1.6.9m-39.5-11c11.9 0 23.2 2.7 33.3 7.6l-29.9 58.6c-.3-.1-.5-.1-.8-.2l14.1-63.9-2-.4-14.2 64c-.3 0-.6-.1-.9-.1-.2 0-.4 0-.6.1l-8.6-65c3.3-.5 6.4-.7 9.6-.7m5.3 75.8c0 2.9-2.5 5.3-5.5 5.3s-5.5-2.4-5.5-5.3c0-2.9 2.5-5.3 5.5-5.3s5.5 2.3 5.5 5.3m-16.7-75l8.6 65c-.5.1-1 .2-1.4.4l-30.3-58.1c7.2-3.5 14.9-6 23.1-7.3m-24.9 8.3l30.3 58.1c-.4.3-.8.6-1.2.9l-48.3-44.2c5.6-5.9 12.1-10.9 19.2-14.8m-20.6 16.2l48.3 44.2c-.3.4-.7.9-.9 1.4l-60.9-24.6c3.3-7.7 7.9-14.8 13.5-21m-14.3 22.9l60.9 24.5c-.2.6-.3 1.1-.4 1.7l-65.9-3c.6-8.2 2.4-16 5.4-23.2m-5.7 29.2c0-1.3 0-2.7.1-4l66 3c0 .4.1.8.1 1.2l-63.7 19.2c-1.7-6.2-2.5-12.7-2.5-19.4m14.8 45.7c-5.3-7.3-9.3-15.5-11.8-24.3l63.8-19.2c.2.6.5 1.2.9 1.7l-52.9 41.8m1.2 1.6l52.9-41.9c.3.3.7.6 1.1.9l-36.9 57.3c-6.5-4.5-12.3-10-17.1-16.3m18.8 17.4l36.9-57.3c.4.2.7.4 1.1.5l-14.8 67.1c-8.4-2.1-16.2-5.6-23.2-10.3m42.1 12.7c-5.8 0-11.5-.7-17-1.9l14.7-67c.6.1 1.3.2 2 .2.1 0 .1 0 .2 0l9.2 68.2c-3 .3-6 .5-9.1.5m11.1-.8l-9.2-68.2c.4-.1.7-.2 1.1-.3l32.6 60.5c-7.6 3.9-15.8 6.7-24.5 8m26.2-8.9l-32.5-60.3c.1 0 .1-.1.2-.1l4.9 1.7 47 43c-5.7 6.2-12.2 11.5-19.6 15.7m20.9-17.2l-43.5-39.7 55.8 19.9c-3 7.2-7.2 13.9-12.3 19.8m13.1-21.7l-60.4-21.6-2.8-2.6c.3-.3.6-.7.8-1.1l60.5 4.9c-.1.7-.1 1.4-.1 2.1 0 4.8 1.5 9.3 3.9 13.2-.6 1.8-1.2 3.5-1.9 5.1m-.7-26l-60.3-4.9c0-.7-.2-1.3-.3-1.9l12.5-3.8 53.8-1.9c.1 1 .2 2 .3 3-2.7 2.6-4.8 5.9-6 9.5m25.1 25.5c-5-.6-9.4-2.7-12.6-6 1.1-4.1 1.9-8.2 2.4-12.5l15.5 1.3 1.8.1 9.3-8.6c9 14.3-6.6 27-16.4 25.7m-9.8-31.5c2.8-1.8 6.4-2.7 10.1-2.7 4.4 0 9.8 1.4 12.3 4.4l-7.2 6.9-15.1-1.2c.1-1.5.1-3 .1-4.5 0-.7-.2-2.4-.2-2.9m28.4-4.4c-4.8-4.4-11.3-7.1-18.4-7.1-3.8 0-7.4.8-10.6 2.1-3.8-27.4-20.1-50.7-42.9-63.8l22.1-43.4h134.6l3.9 16.6c-1.9 2.3-87.7 94.3-88.7 95.6"/></g><g fill="#1d1d1b"><path d="m298.2 273.4h.1c0 0 0 0 0 0h-.1"/><path d="m307.7 281c0 0 0 0 0 0l-.4.1c.2 0 .3-.1.4-.1"/><path d="m300.9 283.4l-.2.1c0 0 0 0 0 0 .1 0 .1-.1.2-.1"/><path d="m300.6 283.5c.1 0 .1 0 0 0"/><path d="m307.9 280.9l-.2.1c0 0 0 0 0 0 .1-.1.2-.1.2-.1"/></g><path fill="#fcfcfc" d="m307.3 281.1l-6.4 2.3c0 0 0 0 0 0 2.9-1 5.4-1.9 6.4-2.3"/><path fill="#084975" d="m184.4 277.2c0-.5-3.8-64.3-2-66.1l-6.3-42.2-55.6 12.2c-3.2 17.1 11.1 30.2 11.1 30.2s4 6.4 4.1 12.1c.1 5.7 8.2 32.9 8.2 32.9 7 23.1 13.2 38.2 13.8 42.1.3 2.3 18 57.8 17.7 59.9-.3 2.1 4.2 17.5 4.2 17.5s0 0 .2 1.7c.2 1.7 1.9 10.6 1.9 10.6l.6 2.7c-2.1 3.4 16.2 3.3 16.4.3.2-3-3.2-9.7-3.2-9.7l-5-40.6c-.2-6.8-2-25.3-3.6-40.5l-.2.3c-.1-.1-3.5-21.2-2.3-23.4"/><path fill="#f9f9f7" d="m112.4 182.1c0 0 10-72 85.1-105.3 0 0 19.4-9.8 26.1-4.1 3.8 6 17.1 20.6 17.1 21.2 0 1-25.4 8.8-23.7 11.6s3.3 12.9.6 19.2-13.2 4.9-18.8 9.6c-14.3 12.2-11.3 34-11.3 34l-75.1 13.8"/></svg>